<svg width="568" height="808" viewBox="0 0 568 808" fill="none" xmlns="http://www.w3.org/2000/svg">
<rect width="568" height="808" fill="#F2EAD9"/>
<rect x="24" y="24" width="520" height="760" fill="none" stroke="#C6A15B" stroke-width="1.6"/>
<rect x="36" y="36" width="496" height="736" fill="none" stroke="#C6A15B" stroke-width="0.6" opacity="0.7"/>
<path d="M 48 74 L 48 48 L 74 48 L 74 67.5 L 57.75 67.5 L 57.75 54.5 L 67.5 54.5 L 67.5 61.0 L 64.25 61.0" fill="none" stroke="#C6A15B" stroke-width="1.6"/>
<path d="M 48 65 L 48 48 L 65 48 L 65 60.75 L 54.375 60.75 L 54.375 52.25 L 60.75 52.25 L 60.75 56.5 L 58.625 56.5" fill="none" stroke="#C6A15B" stroke-width="1.2"/>
<path d="M 520 74 L 520 48 L 546 48 L 546 67.5 L 529.75 67.5 L 529.75 54.5 L 539.5 54.5 L 539.5 61.0 L 536.25 61.0" fill="none" stroke="#C6A15B" stroke-width="1.6" transform="rotate(90 520 48)"/>
<path d="M 520 65 L 520 48 L 537 48 L 537 60.75 L 526.375 60.75 L 526.375 52.25 L 532.75 52.25 L 532.75 56.5 L 530.625 56.5" fill="none" stroke="#C6A15B" stroke-width="1.2" transform="rotate(90 520 48)"/>
<path d="M 520 786 L 520 760 L 546 760 L 546 779.5 L 529.75 779.5 L 529.75 766.5 L 539.5 766.5 L 539.5 773.0 L 536.25 773.0" fill="none" stroke="#C6A15B" stroke-width="1.6" transform="rotate(180 520 760)"/>
<path d="M 520 777 L 520 760 L 537 760 L 537 772.75 L 526.375 772.75 L 526.375 764.25 L 532.75 764.25 L 532.75 768.5 L 530.625 768.5" fill="none" stroke="#C6A15B" stroke-width="1.2" transform="rotate(180 520 760)"/>
<path d="M 48 786 L 48 760 L 74 760 L 74 779.5 L 57.75 779.5 L 57.75 766.5 L 67.5 766.5 L 67.5 773.0 L 64.25 773.0" fill="none" stroke="#C6A15B" stroke-width="1.6" transform="rotate(270 48 760)"/>
<path d="M 48 777 L 48 760 L 65 760 L 65 772.75 L 54.375 772.75 L 54.375 764.25 L 60.75 764.25 L 60.75 768.5 L 58.625 768.5" fill="none" stroke="#C6A15B" stroke-width="1.2" transform="rotate(270 48 760)"/>
<rect x="260.0" y="66" width="48" height="48" rx="7" fill="#9D2933"/>
<rect x="267.0" y="73" width="34" height="34" rx="4" fill="none" stroke="#C6A15B" stroke-width="1.3"/>
<line x1="274.0" y1="82" x2="294.0" y2="82" stroke="#C6A15B" stroke-width="1.8" stroke-linecap="round"/>
<line x1="274.0" y1="90" x2="294.0" y2="90" stroke="#C6A15B" stroke-width="1.8" stroke-linecap="round"/>
<line x1="274.0" y1="98" x2="294.0" y2="98" stroke="#C6A15B" stroke-width="1.8" stroke-linecap="round"/>
<path d="M 228.0 712 q 14 -8 28 0 t 28 0 t 28 0 t 28 0" fill="none" stroke="#C6A15B" stroke-width="1.3" stroke-linecap="round" opacity="0.55"/>
<path d="M 228.0 722 q 14 -8 28 0 t 28 0 t 28 0 t 28 0" fill="none" stroke="#C6A15B" stroke-width="1.3" stroke-linecap="round" opacity="0.4"/>
<circle cx="284.0" cy="424.0" r="212" fill="#F2EAD9"/>
<path d="M 211.5 623.2 A 212 212 0 1 1 356.5 623.2" fill="none" stroke="#C6A15B" stroke-width="1.9"/>
<path d="M 214.9 613.8 A 202 202 0 1 1 353.1 613.8" fill="none" stroke="#C6A15B" stroke-width="0.85"/>
<line x1="264.0" y1="620.0" x2="264.0" y2="652.0" stroke="#C6A15B" stroke-width="2.0"/>
<line x1="304.0" y1="620.0" x2="304.0" y2="652.0" stroke="#C6A15B" stroke-width="2.0"/>
<circle cx="284.0" cy="424.0" r="96" fill="none" stroke="#9D2933" stroke-width="2.2"/>
<circle cx="284.0" cy="424.0" r="66" fill="none" stroke="#9D2933" stroke-width="1.9"/>
<line x1="393.0" y1="424.0" x2="402.0" y2="424.0" stroke="#C6A15B" stroke-width="0.65" opacity="0.55"/>
<line x1="391.3" y1="442.9" x2="400.2" y2="444.5" stroke="#C6A15B" stroke-width="0.65" opacity="0.55"/>
<line x1="386.4" y1="461.3" x2="394.9" y2="464.4" stroke="#C6A15B" stroke-width="0.65" opacity="0.55"/>
<line x1="378.4" y1="478.5" x2="386.2" y2="483.0" stroke="#C6A15B" stroke-width="0.65" opacity="0.55"/>
<line x1="367.5" y1="494.1" x2="374.4" y2="499.8" stroke="#C6A15B" stroke-width="0.65" opacity="0.55"/>
<line x1="354.1" y1="507.5" x2="359.8" y2="514.4" stroke="#C6A15B" stroke-width="0.65" opacity="0.55"/>
<line x1="338.5" y1="518.4" x2="343.0" y2="526.2" stroke="#C6A15B" stroke-width="0.65" opacity="0.55"/>
<line x1="321.3" y1="526.4" x2="324.4" y2="534.9" stroke="#C6A15B" stroke-width="0.65" opacity="0.55"/>
<line x1="302.9" y1="531.3" x2="304.5" y2="540.2" stroke="#C6A15B" stroke-width="0.65" opacity="0.55"/>
<line x1="284.0" y1="533.0" x2="284.0" y2="542.0" stroke="#C6A15B" stroke-width="0.65" opacity="0.55"/>
<line x1="265.1" y1="531.3" x2="263.5" y2="540.2" stroke="#C6A15B" stroke-width="0.65" opacity="0.55"/>
<line x1="246.7" y1="526.4" x2="243.6" y2="534.9" stroke="#C6A15B" stroke-width="0.65" opacity="0.55"/>
<line x1="229.5" y1="518.4" x2="225.0" y2="526.2" stroke="#C6A15B" stroke-width="0.65" opacity="0.55"/>
<line x1="213.9" y1="507.5" x2="208.2" y2="514.4" stroke="#C6A15B" stroke-width="0.65" opacity="0.55"/>
<line x1="200.5" y1="494.1" x2="193.6" y2="499.8" stroke="#C6A15B" stroke-width="0.65" opacity="0.55"/>
<line x1="189.6" y1="478.5" x2="181.8" y2="483.0" stroke="#C6A15B" stroke-width="0.65" opacity="0.55"/>
<line x1="181.6" y1="461.3" x2="173.1" y2="464.4" stroke="#C6A15B" stroke-width="0.65" opacity="0.55"/>
<line x1="176.7" y1="442.9" x2="167.8" y2="444.5" stroke="#C6A15B" stroke-width="0.65" opacity="0.55"/>
<line x1="175.0" y1="424.0" x2="166.0" y2="424.0" stroke="#C6A15B" stroke-width="0.65" opacity="0.55"/>
<line x1="176.7" y1="405.1" x2="167.8" y2="403.5" stroke="#C6A15B" stroke-width="0.65" opacity="0.55"/>
<line x1="181.6" y1="386.7" x2="173.1" y2="383.6" stroke="#C6A15B" stroke-width="0.65" opacity="0.55"/>
<line x1="189.6" y1="369.5" x2="181.8" y2="365.0" stroke="#C6A15B" stroke-width="0.65" opacity="0.55"/>
<line x1="200.5" y1="353.9" x2="193.6" y2="348.2" stroke="#C6A15B" stroke-width="0.65" opacity="0.55"/>
<line x1="213.9" y1="340.5" x2="208.2" y2="333.6" stroke="#C6A15B" stroke-width="0.65" opacity="0.55"/>
<line x1="229.5" y1="329.6" x2="225.0" y2="321.8" stroke="#C6A15B" stroke-width="0.65" opacity="0.55"/>
<line x1="246.7" y1="321.6" x2="243.6" y2="313.1" stroke="#C6A15B" stroke-width="0.65" opacity="0.55"/>
<line x1="265.1" y1="316.7" x2="263.5" y2="307.8" stroke="#C6A15B" stroke-width="0.65" opacity="0.55"/>
<line x1="284.0" y1="315.0" x2="284.0" y2="306.0" stroke="#C6A15B" stroke-width="0.65" opacity="0.55"/>
<line x1="302.9" y1="316.7" x2="304.5" y2="307.8" stroke="#C6A15B" stroke-width="0.65" opacity="0.55"/>
<line x1="321.3" y1="321.6" x2="324.4" y2="313.1" stroke="#C6A15B" stroke-width="0.65" opacity="0.55"/>
<line x1="338.5" y1="329.6" x2="343.0" y2="321.8" stroke="#C6A15B" stroke-width="0.65" opacity="0.55"/>
<line x1="354.1" y1="340.5" x2="359.8" y2="333.6" stroke="#C6A15B" stroke-width="0.65" opacity="0.55"/>
<line x1="367.5" y1="353.9" x2="374.4" y2="348.2" stroke="#C6A15B" stroke-width="0.65" opacity="0.55"/>
<line x1="378.4" y1="369.5" x2="386.2" y2="365.0" stroke="#C6A15B" stroke-width="0.65" opacity="0.55"/>
<line x1="386.4" y1="386.7" x2="394.9" y2="383.6" stroke="#C6A15B" stroke-width="0.65" opacity="0.55"/>
<line x1="391.3" y1="405.1" x2="400.2" y2="403.5" stroke="#C6A15B" stroke-width="0.65" opacity="0.55"/>
<circle cx="284.0" cy="424.0" r="118" fill="none" stroke="#C6A15B" stroke-width="1.05"/>
<circle cx="358.8" cy="455.0" r="2.4" fill="#C6A15B"/>
<circle cx="315.0" cy="498.8" r="2.4" fill="#C6A15B"/>
<circle cx="253.0" cy="498.8" r="2.4" fill="#C6A15B"/>
<circle cx="209.2" cy="455.0" r="2.4" fill="#C6A15B"/>
<circle cx="209.2" cy="393.0" r="2.4" fill="#C6A15B"/>
<circle cx="253.0" cy="349.2" r="2.4" fill="#C6A15B"/>
<circle cx="315.0" cy="349.2" r="2.4" fill="#C6A15B"/>
<circle cx="358.8" cy="393.0" r="2.4" fill="#C6A15B"/>
<circle cx="324.0" cy="424.0" r="2.1" fill="#C6A15B"/>
<circle cx="312.3" cy="452.3" r="2.1" fill="#C6A15B"/>
<circle cx="284.0" cy="464.0" r="2.1" fill="#C6A15B"/>
<circle cx="255.7" cy="452.3" r="2.1" fill="#C6A15B"/>
<circle cx="244.0" cy="424.0" r="2.1" fill="#C6A15B"/>
<circle cx="255.7" cy="395.7" r="2.1" fill="#C6A15B"/>
<circle cx="284.0" cy="384.0" r="2.1" fill="#C6A15B"/>
<circle cx="312.3" cy="395.7" r="2.1" fill="#C6A15B"/>
<circle cx="284.0" cy="424.0" r="7.5" fill="#9D2933"/>
<circle cx="284.0" cy="424.0" r="12.5" fill="none" stroke="#C6A15B" stroke-width="1.05"/>
<rect x="100.0" y="382.0" width="52" height="84" fill="#F2EAD9" stroke="#C6A15B" stroke-width="1.1"/>
<rect x="108.0" y="392.0" width="36" height="64" fill="none" stroke="#C6A15B" stroke-width="0.65" opacity="0.7"/>
<rect x="416.0" y="382.0" width="52" height="84" fill="#F2EAD9" stroke="#C6A15B" stroke-width="1.1"/>
<rect x="424.0" y="392.0" width="36" height="64" fill="none" stroke="#C6A15B" stroke-width="0.65" opacity="0.7"/>
</svg>
